<svg width="38" height="220" xmlns="http://www.w3.org/2000/svg">
 <defs>
  <linearGradient y2="0.499948" x2="1" y1="0.499948" x1="0" id="a">
   <stop stop-color="#ff963b" offset="0.15"/>
   <stop stop-color="#f27202" offset="0.5"/>
   <stop stop-color="#ff963b" offset="0.85"/>
  </linearGradient>
 </defs>
 <g>
  <title>background</title>
  <rect fill="none" id="canvas_background" height="222" width="40" y="-1" x="-1"/>
 </g>
 <g>
  <title>Layer 1</title>
  <g stroke="null" id="svg_1">
   <path stroke="null" id="svg_2" d="m-0.294999,207.15828l0,-193.757942l19.27,-12.648278l19.32,12.693857l0,193.712363l-19.32,12.671068l-19.27,-12.671068z" fill="url(#a)"/>
   <path stroke="null" id="svg_3" d="m18.975001,1.48133l18.76,12.329222l0,192.971698l-18.76,12.306432l-18.71,-12.306432l0,-192.994488l18.71,-12.306432m0,-1.48133l-0.56,0.364635l-18.71,12.306432l-0.56,0.37603l0,194.464423l0.56,0.37603l18.71,12.306432l0.56,0.37603l0.56,-0.37603l18.76,-12.306432l0.56,-0.37603l0,-194.430238l-0.56,-0.37603l-18.76,-12.340617l-0.56,-0.364635z"/>
   <path stroke="null" id="svg_4" d="m18.975001,5.90253l15.4,10.118622l0,188.539103l-15.4,10.107227l-15.35,-10.095833l0,-188.573288l15.35,-10.095833m0,-4.432595l-18.71,12.317827l0,192.994488l18.71,12.306432l18.76,-12.306432l0,-192.971698l-18.76,-12.329222l0,-0.011395z" fill="#753802"/>
  </g>
 </g>
</svg>