<svg width="38" height="220" xmlns="http://www.w3.org/2000/svg">
 <defs>
  <linearGradient y2="0.499948" x2="1" y1="0.499948" x1="0" id="a">
   <stop stop-color="#00ff1a" offset="0.15"/>
   <stop stop-color="#4da45f" offset="0.5"/>
   <stop stop-color="#00ff1a" offset="0.85"/>
  </linearGradient>
 </defs>
 <g>
  <title>background</title>
  <rect fill="none" id="canvas_background" height="222" width="40" y="-1" x="-1"/>
 </g>
 <g>
  <title>Layer 1</title>
  <g stroke="null" id="svg_1">
   <path stroke="null" id="svg_2" d="m-0.290001,207.158265l0,-193.757928l19.27,-12.648277l19.32,12.693856l0,193.712349l-19.32,12.671067l-19.27,-12.671067z" fill="url(#a)"/>
   <path stroke="null" id="svg_3" d="m18.979999,1.48133l18.76,12.329221l0,192.971684l-18.76,12.306432l-18.72,-12.306432l0,-192.994474l18.72,-12.306432m0,-1.48133l-0.56,0.364635l-18.71,12.306432l-0.57,0.37603l0,194.464409l0.56,0.37603l18.72,12.306432l0.56,0.37603l0.56,-0.37603l18.76,-12.306432l0.56,-0.37603l0,-194.430224l-0.56,-0.37603l-18.76,-12.340616l-0.56,-0.364635z"/>
   <path stroke="null" id="svg_4" d="m18.979999,5.902529l15.4,10.118622l0,188.53909l-15.4,10.107227l-15.35,-10.095832l0,-188.573274l15.35,-10.095832m0,-4.432594l-18.71,12.317826l0,192.994474l18.71,12.306432l18.76,-12.306432l0,-192.971684l-18.76,-12.329221l0,-0.011395z" fill="#086800"/>
  </g>
 </g>
</svg>