<svg width="38" height="220" xmlns="http://www.w3.org/2000/svg">
 <defs>
  <linearGradient y2="0.499948" x2="1" y1="0.499948" x1="0" id="a">
   <stop stop-color="red" offset="0.15"/>
   <stop stop-color="#b30000" offset="0.5"/>
   <stop stop-color="red" offset="0.85"/>
  </linearGradient>
 </defs>
 <g>
  <title>background</title>
  <rect fill="none" id="canvas_background" height="222" width="40" y="-1" x="-1"/>
 </g>
 <g>
  <title>Layer 1</title>
  <g stroke="null" id="svg_1">
   <path stroke="null" id="svg_2" d="m-0.295,207.158256l0,-193.75792l19.27,-12.648276l19.32,12.693856l0,193.712341l-19.32,12.671066l-19.27,-12.671066z" fill="url(#a)"/>
   <path stroke="null" id="svg_3" d="m18.975,1.48133l18.76,12.329221l0,192.971676l-18.76,12.306431l-18.71,-12.306431l0,-192.994466l18.71,-12.306431m0,-1.48133l-0.56,0.364635l-18.71,12.306431l-0.56,0.37603l0,194.4644l0.56,0.37603l18.71,12.306431l0.56,0.37603l0.56,-0.37603l18.76,-12.306431l0.56,-0.37603l0,-194.430216l-0.56,-0.37603l-18.76,-12.340616l-0.56,-0.364635z"/>
   <path stroke="null" id="svg_4" d="m18.975,5.902529l15.4,10.118621l0,188.539082l-15.4,10.107226l-15.35,-10.095831l0,-188.573266l15.35,-10.095831m0,-4.432594l-18.71,12.317826l0,192.994466l18.71,12.306431l18.76,-12.306431l0,-192.971676l-18.76,-12.329221l0,-0.011395z" fill="#8C0039"/>
  </g>
 </g>
</svg>