<svg width="38" height="220" xmlns="http://www.w3.org/2000/svg">
 <defs>
  <linearGradient y2="0.499948" x2="1" y1="0.499948" x1="0" id="a">
   <stop stop-color="#0af" offset="0.15"/>
   <stop stop-color="#4d4dff" offset="0.5"/>
   <stop stop-color="#0af" offset="0.85"/>
  </linearGradient>
 </defs>
 <g>
  <title>background</title>
  <rect fill="none" id="canvas_background" height="222" width="40" y="-1" x="-1"/>
 </g>
 <g>
  <title>Layer 1</title>
  <g stroke="null" id="svg_1">
   <path stroke="null" id="svg_2" d="m-0.35,207.097459l0,-194.636382l19.27,-12.705621l19.32,12.751407l0,194.590596l-19.32,12.728514l-19.27,-12.728514z" fill="url(#a)"/>
   <path stroke="null" id="svg_3" d="m18.92,0.488033l18.76,12.385119l0,193.846573l-18.76,12.362226l-18.71,-12.362226l0,-193.869466l18.71,-12.362226m0,-1.488046l-0.56,0.366288l-18.71,12.362226l-0.56,0.377735l0,195.346065l0.56,0.377735l18.71,12.362226l0.56,0.377735l0.56,-0.377735l18.76,-12.362226l0.56,-0.377735l0,-195.311726l-0.56,-0.377735l-18.76,-12.396566l-0.56,-0.366288z"/>
   <path stroke="null" id="svg_4" d="m18.92,4.929277l15.4,10.164497l0,189.393882l-15.4,10.15305l-15.35,-10.141604l0,-189.428222l15.35,-10.141604m0,-4.452691l-18.71,12.373673l0,193.869466l18.71,12.362226l18.76,-12.362226l0,-193.846573l-18.76,-12.385119l0,-0.011447z" fill="#0000B2"/>
  </g>
 </g>
</svg>