<svg width="32" height="38" viewBox="0 0 32 38" fill="none" xmlns="http://www.w3.org/2000/svg">
<path fill-rule="evenodd" clip-rule="evenodd" d="M30.2222 8C30.2222 8 31.1547 8.57361 31.5556 9.25001C31.9564 9.92642 32 11 32 11V38L22.1584 29.5L22.8926 32.1229L17.7778 35C17.7778 35 16.8017 35.5 16 35.5C15.1984 35.5 14.2222 35 14.2222 35L1.77772 28C1.77772 28 0.845448 27.4267 0.444626 26.7503C0.0438037 26.0739 0 25.0001 0 25.0001V11C0 11 0.0437351 9.92622 0.444568 9.24981C0.8454 8.57341 1.77777 8 1.77777 8L14.2222 1C14.2222 1 15.1984 0.5 16 0.5C16.8017 0.5 17.7778 1 17.7778 1L30.2222 8ZM18.5744 11.0022C19.8606 11.2197 21.0906 11.6022 22.2381 12.1196C22.2481 12.1236 22.2564 12.1311 22.2614 12.1406C24.2946 15.0819 25.2981 18.4012 24.9231 22.2215C24.9222 22.2295 24.9196 22.2373 24.9155 22.2443C24.9113 22.2513 24.9058 22.2573 24.8991 22.262C23.5353 23.2555 22.0134 24.0113 20.3976 24.4976C20.3862 24.501 20.3741 24.5008 20.3628 24.497C20.3515 24.4933 20.3417 24.4861 20.3346 24.4766C19.9949 24.0109 19.6859 23.5204 19.4159 23.0052C19.4122 22.9981 19.4101 22.9903 19.4096 22.9823C19.4092 22.9743 19.4105 22.9663 19.4134 22.9588C19.4163 22.9514 19.4208 22.9446 19.4265 22.9391C19.4322 22.9335 19.4391 22.9292 19.4466 22.9264C19.9364 22.7449 20.4029 22.5267 20.8514 22.2687C20.8594 22.264 20.866 22.2573 20.8708 22.2493C20.8756 22.2414 20.8784 22.2323 20.8788 22.2231C20.8793 22.2138 20.8774 22.2045 20.8734 22.1961C20.8694 22.1877 20.8634 22.1805 20.8559 22.175C20.7606 22.1052 20.6669 22.0325 20.5769 21.959C20.5686 21.9524 20.5587 21.9483 20.5482 21.9471C20.5377 21.9459 20.5271 21.9477 20.5176 21.9522C17.6069 23.2752 14.4171 23.2752 11.4719 21.9522C11.4624 21.948 11.4519 21.9464 11.4415 21.9477C11.4312 21.949 11.4215 21.9532 11.4134 21.9597C11.3234 22.0325 11.2289 22.1052 11.1344 22.175C11.1269 22.1806 11.121 22.188 11.1171 22.1964C11.1132 22.2049 11.1115 22.2142 11.1121 22.2235C11.1127 22.2328 11.1156 22.2418 11.1205 22.2497C11.1255 22.2576 11.1323 22.2641 11.1404 22.2687C11.5904 22.5246 12.0599 22.7447 12.5444 22.9272C12.5759 22.9392 12.5909 22.9752 12.5751 23.0052C12.3111 23.5211 12.0021 24.0124 11.6556 24.4773C11.6483 24.4865 11.6384 24.4933 11.6271 24.4968C11.6159 24.5003 11.6039 24.5003 11.5926 24.4968C9.97961 24.0092 8.46015 23.2537 7.09786 22.262C7.09139 22.257 7.08599 22.2508 7.08199 22.2437C7.078 22.2366 7.07548 22.2288 7.07461 22.2207C6.76036 18.9164 7.40011 15.5702 9.73411 12.1391C9.73986 12.1301 9.74823 12.123 9.75811 12.1189C10.9064 11.6007 12.1364 11.2182 13.4219 11.0007C13.4335 10.9989 13.4454 11.0006 13.4559 11.0057C13.4665 11.0108 13.4753 11.019 13.4811 11.0292C13.6524 11.3279 13.8069 11.6358 13.9439 11.9516C15.308 11.7478 16.6949 11.7478 18.0591 11.9516C18.1821 11.6667 18.3576 11.3059 18.5151 11.0292C18.521 11.0191 18.5298 11.0111 18.5404 11.0063C18.551 11.0014 18.5629 11 18.5744 11.0022ZM11.3976 18.4237C11.3976 19.4069 12.1289 20.2086 13.0154 20.2086C13.9161 20.2086 14.6331 19.4077 14.6331 18.4237C14.6474 17.4465 13.9229 16.6388 13.0154 16.6388C12.1146 16.6388 11.3976 17.4398 11.3976 18.4237ZM17.3789 18.4237C17.3789 19.4069 18.1094 20.2086 18.9966 20.2086C19.9049 20.2086 20.6144 19.4077 20.6144 18.4237C20.6286 17.4465 19.9041 16.6388 18.9966 16.6388C18.0951 16.6388 17.3789 17.4398 17.3789 18.4237Z" fill="white"/>
</svg>
