<svg width="32" height="36" viewBox="0 0 32 36" fill="none" xmlns="http://www.w3.org/2000/svg">
<path fill-rule="evenodd" clip-rule="evenodd" d="M17.5 0.866035C16.5718 0.330137 15.4282 0.330137 14.5 0.866035L1.91153 8.13398C0.983326 8.66988 0.41153 9.66026 0.41153 10.7321V25.268C0.41153 26.3398 0.983326 27.3301 1.91153 27.866L14.5 35.134C15.4282 35.6699 16.5718 35.6699 17.5 35.134L30.0884 27.866C31.0166 27.3301 31.5884 26.3398 31.5884 25.268V10.7321C31.5884 9.66026 31.0166 8.66988 30.0884 8.13398L17.5 0.866035ZM24.0504 12.9278C24.3245 13.1876 24.523 13.5167 24.6249 13.8803V13.8796C24.8937 15.242 25.0194 16.6288 24.9999 18.0173C25.0088 19.4 24.883 20.7803 24.6242 22.1386C24.5252 22.4971 24.3279 22.8263 24.0504 23.0911C23.7686 23.3588 23.4233 23.5503 23.0469 23.6476C20.7058 23.9091 18.3509 24.0269 15.9954 24.0001C15.9954 24.0001 10.3802 24.0001 8.95293 23.6296C8.57193 23.5283 8.22543 23.3371 7.94718 23.0723C7.66893 22.8076 7.46868 22.4798 7.36593 22.1206C7.11318 20.7601 6.99093 19.3808 6.99993 18.0001C6.99115 16.6181 7.1137 15.2384 7.36593 13.8796C7.47093 13.5188 7.67193 13.1896 7.94943 12.9226C8.23185 12.6528 8.57657 12.457 8.95293 12.3526C11.291 12.091 13.6429 11.9733 15.9954 12.0001C15.9954 12.0001 21.6384 12.0001 23.0469 12.3713C23.4233 12.4685 23.7686 12.6601 24.0504 12.9278ZM14.2014 15.4328V20.5681L18.8964 18.0008L14.2014 15.4328Z" fill="white"/>
</svg>
