<svg width="32" height="36" viewBox="0 0 32 36" fill="none" xmlns="http://www.w3.org/2000/svg">
<path fill-rule="evenodd" clip-rule="evenodd" d="M17.5 0.866035C16.5718 0.330137 15.4282 0.330137 14.5 0.866035L1.91156 8.13398C0.983357 8.66988 0.41156 9.66026 0.41156 10.7321V25.268C0.41156 26.3398 0.983357 27.3301 1.91156 27.866L14.5 35.134C15.4282 35.6699 16.5718 35.6699 17.5 35.134L30.0885 27.866C31.0167 27.3301 31.5885 26.3398 31.5885 25.268V10.7321C31.5885 9.66026 31.0167 8.66988 30.0885 8.13398L17.5 0.866035ZM22.726 13.2524C23.4333 13.1677 24.106 12.9802 24.7323 12.7027L24.7308 12.7049C24.262 13.4061 23.672 14.0182 22.9885 14.5124C22.9953 14.6624 22.999 14.8139 22.999 14.9639C22.999 19.5809 19.4853 24.9044 13.0578 24.9044C11.159 24.9066 9.29988 24.3616 7.70278 23.3347C7.97958 23.3672 8.25806 23.3835 8.53678 23.3834C10.1102 23.3858 11.6387 22.8588 12.8763 21.8872C12.1472 21.8738 11.4406 21.6328 10.8553 21.1979C10.27 20.763 9.8354 20.1559 9.61228 19.4617C10.136 19.5615 10.6756 19.541 11.1903 19.4017C10.3995 19.2419 9.68828 18.8134 9.17741 18.1889C8.66655 17.5645 8.38747 16.7825 8.38753 15.9757V15.9307C8.87268 16.2004 9.41523 16.3503 9.97003 16.3679C9.49165 16.0485 9.09952 15.6159 8.82843 15.1085C8.55735 14.6011 8.41569 14.0347 8.41603 13.4594C8.41603 12.8204 8.58853 12.2204 8.88853 11.7029C9.76591 12.7823 10.8604 13.6651 12.1011 14.2941C13.3417 14.9231 14.7008 15.2842 16.09 15.3539C15.9142 14.6045 15.9907 13.818 16.3076 13.1165C16.6246 12.415 17.1643 11.8377 17.843 11.4744C18.5216 11.111 19.3012 10.9819 20.0608 11.1071C20.8203 11.2322 21.5173 11.6046 22.0435 12.1664C22.826 12.0128 23.5764 11.7262 24.262 11.3189C24.0017 12.1285 23.4558 12.8158 22.726 13.2524Z" fill="white"/>
</svg>
