<svg width="32" height="36" viewBox="0 0 32 36" fill="none" xmlns="http://www.w3.org/2000/svg">
<path fill-rule="evenodd" clip-rule="evenodd" d="M17.5 0.866035C16.5718 0.330137 15.4282 0.330137 14.5 0.866035L1.91156 8.13398C0.983357 8.66988 0.41156 9.66026 0.41156 10.7321V25.268C0.41156 26.3398 0.983357 27.3301 1.91156 27.866L14.5 35.134C15.4282 35.6699 16.5718 35.6699 17.5 35.134L30.0885 27.866C31.0167 27.3301 31.5885 26.3398 31.5885 25.268V10.7321C31.5885 9.66026 31.0167 8.66988 30.0885 8.13398L17.5 0.866035ZM14.2358 18.5539V27H17.4512V18.5539H20.6075L20.7511 15.5129H17.4512V13.2924C17.4512 12.4539 17.6268 11.9488 18.723 11.9488C19.7358 11.9488 20.664 11.9578 20.664 11.9578L20.7357 9.118C20.7357 9.118 19.8256 9.00001 18.5948 9.00001C15.555 9.00001 14.2358 10.8744 14.2358 12.9155V15.5129H12.0025V18.5539H14.2358Z" fill="white"/>
</svg>
