<svg width="32" height="36" viewBox="0 0 32 36" fill="none" xmlns="http://www.w3.org/2000/svg">
<path fill-rule="evenodd" clip-rule="evenodd" d="M17.5 0.866035C16.5718 0.330137 15.4282 0.330137 14.5 0.866035L1.91156 8.13398C0.983357 8.66988 0.41156 9.66026 0.41156 10.7321V25.268C0.41156 26.3398 0.983357 27.3301 1.91156 27.866L14.5 35.134C15.4282 35.6699 16.5718 35.6699 17.5 35.134L30.0885 27.866C31.0167 27.3301 31.5885 26.3398 31.5885 25.268V10.7321C31.5885 9.66026 31.0167 8.66988 30.0885 8.13398L17.5 0.866035ZM11 10.5H21C22.4167 10.5 23.5 11.5833 23.5 13V23C23.5 24.4167 22.4167 25.5 21 25.5H11C9.58335 25.5 8.50002 24.4167 8.50002 23V13C8.50002 11.5833 9.58335 10.5 11 10.5ZM18.5 18C18.5 16.5833 17.4167 15.5 16 15.5C14.5834 15.5 13.5 16.5833 13.5 18C13.5 19.4167 14.5834 20.5 16 20.5C17.4167 20.5 18.5 19.4167 18.5 18ZM20.1667 12.8333C19.6667 12.8333 19.1667 13.25 19.1667 13.8333C19.1667 14.4167 19.5833 14.8333 20.1667 14.8333C20.75 14.8333 21.1667 14.3333 21.1667 13.8333C21.1667 13.3333 20.6667 12.8333 20.1667 12.8333ZM10.1667 23C10.1667 23.5 10.5 23.8333 11 23.8333H21C21.5 23.8333 21.8333 23.5 21.8333 23V18H20.1667C20.1667 20.3333 18.3333 22.1667 16 22.1667C13.6667 22.1667 11.8334 20.3333 11.8334 18H10.1667V23Z" fill="white"/>
</svg>
