<svg width="32" height="36" viewBox="0 0 32 36" fill="none" xmlns="http://www.w3.org/2000/svg">
<path fill-rule="evenodd" clip-rule="evenodd" d="M17.5 0.866035C16.5718 0.330137 15.4282 0.330137 14.5 0.866035L1.91153 8.13398C0.983326 8.66988 0.41153 9.66026 0.41153 10.7321V25.268C0.41153 26.3398 0.983326 27.3301 1.91153 27.866L14.5 35.134C15.4282 35.6699 16.5718 35.6699 17.5 35.134L30.0884 27.866C31.0166 27.3301 31.5884 26.3398 31.5884 25.268V10.7321C31.5884 9.66026 31.0166 8.66988 30.0884 8.13398L17.5 0.866035ZM22.8201 16.2397C23.9201 16.1297 24.8001 17.0097 24.8001 18.1097C24.8001 18.8797 24.3601 19.5397 23.7001 19.8697V20.4197C23.7001 23.3897 20.2901 25.8097 16.0001 25.8097C11.7101 25.8097 8.30009 23.3897 8.30009 20.4197V19.8697C8.08009 19.8697 7.86009 19.6497 7.75009 19.5397C6.98009 18.7697 6.98009 17.5597 7.75009 16.7897C8.52009 16.0197 9.73009 16.0197 10.5001 16.7897C12.0401 15.6897 13.8001 15.1397 15.6701 15.1397L16.7701 10.4097C16.7701 10.2997 16.7701 10.1897 16.8801 10.1897H17.1001L20.1801 10.9597C20.4001 10.5197 20.8401 10.1897 21.3901 10.1897C22.1601 10.1897 22.8201 10.7397 22.8201 11.5097C22.8201 12.2797 22.2701 12.9397 21.5001 12.9397C20.7301 12.9397 20.0701 12.3897 20.0701 11.6197L17.2101 10.9597L16.3301 15.1397C18.2001 15.1397 19.9601 15.7997 21.5001 16.7897C21.8301 16.4597 22.3801 16.2397 22.8201 16.2397ZM12.9201 18.2197C12.2601 18.2197 11.6001 18.7697 11.6001 19.5397C11.6001 20.3097 12.1501 20.8597 12.9201 20.8597C13.5801 20.8597 14.2401 20.1997 14.2401 19.5397C14.2401 18.8797 13.6901 18.2197 12.9201 18.2197ZM16.0001 24.1597C17.2101 24.2697 18.3101 23.8297 19.3001 23.1697C19.4101 22.9497 19.4101 22.7297 19.1901 22.6197C18.9701 22.5097 18.7501 22.5097 18.6401 22.6197C17.8701 23.1697 16.8801 23.4997 15.8901 23.3897C14.9001 23.4997 13.9101 23.1697 13.1401 22.6197C13.0301 22.5097 12.8101 22.5097 12.7001 22.6197C12.5901 22.8397 12.5901 23.0597 12.7001 23.1697C13.6901 23.8297 14.7901 24.1597 16.0001 24.1597ZM17.6501 19.5397C17.6501 20.1997 18.2001 20.8597 18.9701 20.8597C19.7401 20.8597 20.4001 20.3097 20.2901 19.5397C20.2901 18.8797 19.7401 18.2197 18.9701 18.2197C18.3101 18.2197 17.6501 18.8797 17.6501 19.5397Z" fill="white"/>
</svg>
