<svg width="700pt" height="700pt" version="1.1" viewBox="0 0 700 700" xmlns="http://www.w3.org/2000/svg" xmlns:xlink="http://www.w3.org/1999/xlink" preserveAspectRatio="none">
 <g>
  <path d="m350 529.77-220-127.54v-255.01l220-127.54 220 127.53v255.01zm-201.67-138.1 201.67 116.91 201.67-116.91v-233.88l-201.67-116.91-201.67 116.91z"/>
  <path d="m445.69 314.58-12.246-12.246 26.875-26.875 12.246 12.246z"/>
  <path d="m445.69 265.71-12.246-12.246 26.875-26.875 12.246 12.246z"/>
  <path d="m445.69 216.85-12.246-12.246 26.875-26.875 12.246 12.246z"/>
  <path d="m265.04 216.84-26.875-26.875 12.246-12.246 26.875 26.875z"/>
  <path d="m265.04 265.71-26.875-26.875 12.246-12.246 26.875 26.875z"/>
  <path d="m265.04 314.58-26.875-26.875 12.246-12.246 26.875 26.875z"/>
  <path d="m419.57 228.04-10.039 0.14063c9.2031-14.367 10.008-30.469 10.039-32.586v-17.809l-17.809 0.24609c-1.5156 0.019531-10.254 0.32422-20.367 3.8789 1.2266-4.3008 2.0352-8.9609 2.0352-13.914 0-22.133-15.539-38.746-17.312-40.57l-12.418-12.766-12.418 12.766c-1.7734 1.8203-17.312 18.438-17.312 40.57 0 4.957 0.80859 9.6133 2.0352 13.914-10.113-3.5586-18.848-3.8633-20.367-3.8789l-17.809-0.24609v17.809c0.03125 2.1133 0.83594 18.219 10.039 32.586l-10.039-0.14063v17.809c0.03125 2.1133 0.83594 18.219 10.039 32.586l-10.039-0.14062v17.809c0.035156 2.543 1.0391 25.281 16.691 40.934 13.934 13.934 33.445 16.059 39.363 16.383l-0.003906 74.5h18.332v-74.215 0.011719-0.29297c6.1094-0.27344 25.984-2.2383 40.145-16.395 15.652-15.652 17.039-38.391 17.074-40.934v-17.809l-9.9805 0.14062c9.2031-14.367 10.098-30.469 10.121-32.586zm-85.246 28.945c5.2305 5.2305 8.043 16.566 9.5625 22.203v6.6133c-4.7891-0.39062-18.125-2.2773-27.117-11.27-11.129-11.129-11.371-28.918-11.371-28.918 0.003906-0.003906 17.797 0.24219 28.926 11.371zm27.75 28.848 0.14844-0.17188c0-0.72266-0.14844-6.4766-0.14844-6.4766 1.1055-6.1953 4.0352-15.43 10.809-22.207 11.129-11.129 29.023-11.371 29.023-11.371s-0.59375 17.797-11.723 28.918c-9.3477 9.3477-21.996 11.012-28.109 11.309zm39.93-90.48s-0.64062 17.797-11.77 28.918c-9.3516 9.3516-21.902 11.012-28.012 11.305v-0.17188c0 0.17188-0.14844-6.4727-0.14844-6.4727 1.1055-6.1953 4.0352-15.438 10.809-22.215 11.133-11.117 29.121-11.363 29.121-11.363zm-48.301-55.844s12.406 12.754 12.406 28.492c0 15.734-12.406 28.492-12.406 28.492s-12.406-12.754-12.406-28.492 12.406-28.492 12.406-28.492zm-8.7617 96.031c-4.7891-0.39062-19.176-2.2773-28.164-11.27-11.129-11.129-11.371-28.918-11.371-28.918s17.797 0.24609 28.922 11.371c6.7773 6.7773 9.5078 16.012 10.617 22.207zm-28.168 89.238c-11.129-11.129-11.371-28.918-11.371-28.918s17.797 0.24609 28.918 11.371c5.2305 5.2305 8.043 16.566 9.5625 22.203v6.6133c-4.7852-0.39062-18.121-2.2773-27.109-11.27zm73.461 0c-9.3516 9.3516-21.902 11.012-28.012 11.305v-0.17188l-0.14844-6.4766c1.1055-6.1953 4.0352-15.43 10.809-22.207 11.129-11.129 28.82-11.371 28.82-11.371 0.003906 0-0.34375 17.801-11.469 28.922z"/>
 </g>
</svg>
