<svg width="700pt" height="700pt" version="1.1" viewBox="0 0 700 700" xmlns="http://www.w3.org/2000/svg" xmlns:xlink="http://www.w3.org/1999/xlink" preserveAspectRatio="none">
 <g>
  <path d="m356.22 532.96-230.22-129.7v-259.8l230.22-129.7 230.22 129.7v259.8zm-211.55-140.61 211.55 119.19 211.55-119.19v-237.97l-211.55-119.2-211.55 119.2z"/>
  <path d="m437.32 170.79 32.637 36.801-13.199 11.703-32.637-36.801z"/>
  <path d="m525.21 214.67-65.219-77.777h-123.52l-46.43 56h-48.832l-56.484 65.332 56.484 65.332h105.38l26.898-31.109h86.5zm-187.16 90.223h-88.301l-21.941-25.375 44.316-52.391-13.465-11.387-42.527 50.277-6.7266-7.793 40.344-46.668h88.301l40.344 46.668zm51.582-31.113 13.453-15.555-56.496-65.332h-32.293l30.957-37.332h106.03l49.566 59.109-49.574 59.109z"/>
  <path d="m474.15 317.33h-75.113l-41.734 46.668 41.734 46.668h75.113l41.734-46.668zm-8.3516 74.668h-58.422l-25.031-28 25.031-28h58.422l11.125 12.445h-33.594v18.668h44.727z"/>
 </g>
</svg>
