<svg width="700pt" height="700pt" version="1.1" viewBox="0 0 700 700" xmlns="http://www.w3.org/2000/svg" xmlns:xlink="http://www.w3.org/1999/xlink" preserveAspectRatio="none">
 <g>
  <path d="m356.22 533.03-224-129.85v-259.64l224-129.85 224 129.85v259.65zm-205.33-140.61 205.33 119.04 205.33-119.04v-238.13l-205.33-119.04-205.33 119.04z"/>
  <path d="m265.92 214.93c15.656 0 28.387-15.816 28.387-28.262h-17.633c0 6.2227-4.7969 10.629-10.723 10.629-8.6289 0-15.625-7.1445-15.625-15.766 0-11.996 9.8203-21.758 21.809-21.758 16.207 0 29.504 13.191 29.504 29.406 0 21.48-20.086 38.957-38.754 38.957v17.633c31.109 0 56.387-25.375 56.387-56.574 0-25.941-21.297-47.02-47.238-47.02-21.723 0-39.395 17.703-39.395 39.426 0.007812 18.336 14.934 33.328 33.281 33.328z"/>
  <path d="m507.74 242.39 14.082-14.086 0.082032-30.82-10.875-10.871 0.09375-0.09375-16.574-16.574-30.82-0.082031-14.168 14.176-0.66016-0.019531-14.082-14.082-30.82-0.082032-14.168 14.176-0.66016-0.019532-14.082-14.082-30.812-0.082031-16.855 16.852 12.469 12.469 11.668-11.66 16.203 0.042969 13.918 13.918 15.27 0.375 14.344-14.336 16.203 0.042969 13.918 13.918 15.27 0.375 14.344-14.336 16.203 0.042969 5.457 5.4492-0.09375 0.09375 11.66 11.668 1.4688 16.203-12.609 13.941v15.27l12.645 14.344-0.80078 31.453-24.512 15.141h-140.15l-15.73-12.992-11.25-23.59-53.281-7.125-48.77 11.305c-6.3477-5.918-12.145-17.555-15.52-26.48l33.898-37.223-13.809-12.57-41.211 45.254 1.5664 5.0977c1.0312 3.3398 10.566 32.965 27.906 43.898l3.293 2.0781 53.535-12.406 39.891 5.3203 8.6719 18.195 21.852 18.051v39.188h-12.445v18.668h31.109v-56h24.891v49.777h-12.445v18.668h31.109l0.003907-68.445h31.109v37.332h-18.668v18.668h37.332v-56h24.34l0.55469 0.86719v48.91h-12.445v18.668h31.109l0.003906-68.445v-1.8555l34.926-22.277 0.074219-48.426-14.168-14.168z"/>
  <path d="m468.78 248.76 12.469-12.461-16.574-16.578-30.82-0.082031-14.172 14.176-0.66016-0.019531-14.082-14.074-30.816-0.082031-16.844 16.852 12.469 12.469 11.664-11.66 16.199 0.042969 13.926 13.918 15.27 0.36719 14.336-14.328 16.203 0.042969z"/>
  <path d="m403.99 259.46-16.84 16.848 12.469 12.473 11.664-11.664 16.199 0.046874 11.43 11.422 12.469-12.469-16.57-16.574z"/>
 </g>
</svg>
