<svg width="700pt" height="700pt" version="1.1" viewBox="0 0 700 700" xmlns="http://www.w3.org/2000/svg" xmlns:xlink="http://www.w3.org/1999/xlink" preserveAspectRatio="none">
  <g>
    <path d="m350 533.03-224-129.85v-259.64l224-129.85 224 129.85v259.65zm-205.33-140.61 205.33 119.04 205.33-119.04v-238.13l-205.33-119.04-205.33 119.04z"/>
    <path d="m250.45 192.89v37.332h-49.379l-37.734 31.109v93.332h348.45v-0.42187 0.42578l31.109-44.09 0.003906-80.355h-80.891v-74.668h-174.75l-36.809 31.113m253.16 74.664h-69.492l11.562-12.445h68.02zm-159.83-6.2227h-74.668v-49.777h80.16l23.496 17.727-12.328 14.789 13.551 11.289 24.18-29.008-19.609-14.797h27.441v49.777zm99.555-73.527v42.406l-18.668 20.098v-46.43zm-148.81-7.3594h130.32l-14.461 12.445h-129.41zm-86.129 74.668h42.051v12.445h-55.465zm116.71 87.109h-96.027l21.25-25.082-13.453-11.398-28.816 34.016-2.2422 2.4648h-23.82v-56h143.11zm168 0h-149.33v-56h29.566l4.4922 39.535 46.469-11.625 31.129 15.184 7.7266-15.848-36.902-18.008-33.172 8.293-1.9883-17.531h102.02zm18.668-13.223v-43.535l0.007812 0.007812 12.438-15.348v40.109z"/>
  </g>
</svg>
