
<svg width="700pt" height="700pt" version="1.1" viewBox="0 0 700 700" xmlns="http://www.w3.org/2000/svg" xmlns:xlink="http://www.w3.org/1999/xlink" preserveAspectRatio="none">
 <g>
  <path d="m350 13.684-224 129.85v259.65l224 129.85 224-129.85v-259.65zm205.33 378.74-205.33 119.04-205.33-119.04v-238.13l205.33-119.04 205.33 119.04z"/>
  <path d="m256.43 204.51c-12.812 11.289-20.57 28.223-20.57 46.605 0 4.3047 0.45312 8.5117 1.3008 12.57l-39.715 39.711c-0.125 0.125-0.25 0.24219-0.36719 0.36719l-0.64062 0.64062 0.03125 0.03125c-10.66 11.07-17.254 26.078-17.254 42.629 0 33.938 27.609 61.543 61.543 61.543 22.281 0 41.781-11.945 52.578-29.734 10.801 17.789 30.297 29.734 52.586 29.734 22.164 0 41.562-11.816 52.402-29.445l101.07-124.87 0.66406 0.41797c5.3633-8.5312 8.1953-18.395 8.1953-28.512 0-29.566-24.051-53.617-53.617-53.617-2.3633 0-4.6992 0.20703-7.0078 0.50391 1.1523-4.4062 1.8047-8.9648 1.8047-13.641 0-29.562-24.051-53.609-53.617-53.609-14.324 0-27.719 5.5703-37.832 15.656zm40.965 2.6953c24.211 0 43.91 19.699 43.91 43.91 0 24.211-19.699 43.902-43.91 43.902s-43.902-19.691-43.902-43.902c0-24.211 19.691-43.91 43.902-43.91zm-53.316 74.496c0.80859 1.4062 1.6445 2.793 2.5586 4.125-1.9414-0.1875-3.9023-0.29688-5.8867-0.29688-0.17578 0-0.34375 0.023438-0.52344 0.023438zm37.48 68.121c0 22.922-19.008 41.148-42.285 41.148-24.211 0-43.168-19.699-43.168-43.91 0-11.961 5.1875-22.797 12.969-30.727l0.75781-0.57813c7.9258-7.7773 17.391-12.602 29.352-12.602 23.277 0 42.379 18.219 42.379 41.141zm98.742 24.449c-8.0469 10.156-20.457 16.699-34.391 16.699-23.277 0-42.328-18.227-43.766-41.148 0.042969-0.92188 0.13672-1.8281 0.13672-2.7578 0-0.92578-0.097656-1.8359-0.13672-2.7578 1.4375-22.922 20.488-41.141 43.766-41.141 24.211 0 43.902 19.691 43.902 43.902 0 7.9258-2.1406 15.344-5.832 21.773zm54.523-178.1c5.832-3.8633 12.664-5.9531 19.824-5.9531 19.836 0 35.984 16.148 35.984 35.984 0 5.1836-1.1211 10.246-3.2422 14.902l-80.328 99.227c-0.52734-4.8164-1.6562-9.4453-3.2344-13.871l53.094-61.09-13.309-11.566-48.762 56.105c-9.3008-12.227-23.039-20.852-38.82-23.477l76.043-88.035c0.49219-0.40625 0.96484-0.83984 1.4766-1.2148zm-13.133-61.676-54.297 58.375 12.918 12.008 50.383-54.164c0.70312 2.8047 1.1211 5.7188 1.1211 8.7344 0 6.4844-1.8281 12.637-5.0273 18.082l-6.5078 7.5352c-1.2148 1.0195-3.1289 3.6211-3.1289 3.6211l-58.477 67.699c0.14844-1.75 0.26562-3.5039 0.26562-5.2812 0-32.484-25.316-59.105-57.25-61.328l71.566-57.949-0.19141-0.23828c6.4102-5.2578 14.348-8.125 22.762-8.125 10.145 0.011719 19.309 4.25 25.863 11.031z"/>
  <path d="m300.22 284.82v-17.633c-12.445 0-18.902-5.8477-18.902-18.293h-17.633c-0.003906 18.664 17.867 35.926 36.535 35.926z"/>
  <path d="m343.78 369.83v-6.6953c-6.2227 0-13.945-8.4688-13.945-14.691h-17.633c0 18.668 12.91 32.324 31.578 32.324z"/>
  <path d="m238 369.22v-6.0859c-6.2227 0-13.336-8.4688-13.336-14.691h-17.633c0 18.668 12.301 32.324 30.969 32.324z"/>
 </g>
</svg>
