<svg width="700pt" height="700pt" version="1.1" viewBox="0 0 700 700" xmlns="http://www.w3.org/2000/svg" xmlns:xlink="http://www.w3.org/1999/xlink" preserveAspectRatio="none">
 <g>
  <path d="m222.85 193.46c23.676 0 42.926-19.234 42.926-44.121h-26.457c0 12.445-7.2812 17.664-16.363 17.664-13.18 0-23.793-9.5273-23.793-22.703 0-18.293 15.094-33.176 33.387-33.176 24.695 0 45.211 20.09 45.211 44.781 0 32.684-27.32 59.277-58.434 59.277v26.457c43.555 0 84.891-38.613 84.891-85.887 0-39.281-32.805-71.387-72.09-71.387-32.879 0-59.633 26.457-59.633 59.336 0.007812 27.762 22.598 49.758 50.355 49.758z"/>
  <path d="m589.73 236.6 21.375-21.379 0.11719-46.637-16.465-16.465 0.14844-0.14844-25.105-25.113-46.641-0.11719-21.516 21.516-1.1367-0.03125-21.375-21.375-46.641-0.11719-21.516 21.516-1.1328-0.03125-21.379-21.375-46.641-0.11719-25.531 25.531 18.703 18.703 17.754-17.754 24.734 0.070313 21.129 21.129 23.039 0.56641 21.758-21.758 24.734 0.070312 21.129 21.129 23.047 0.56641 21.758-21.758 24.734 0.070313 8.3242 8.3242-0.14844 0.14844 17.754 17.754-0.070313 24.727-21.129 21.129-0.56641 23.055 21.766 21.758-0.074219 48.047-37.379 23.988h-211.89l-24.297-20.215-16.938-35.617-80.203-10.746-74.332 17.211c-10.031-9.1289-19.184-27.559-24.371-41.426l51.844-56.926-19.57-17.82-62.195 68.293 2.2266 7.2188c1.5508 5.0469 15.93 49.703 41.957 66.117l4.668 2.9414 81.043-18.793 61.215 8.1758 13.289 27.883 29.16 24.082v72.953h-24.891v24.891h49.777v-93.336h37.332v87.109h-24.891v24.891h49.777l0.003906-112h56v68.445h-24.891v24.891h49.777l0.003906-93.336h41.59l1.9648 4.3516v82.762h-24.891v24.891h49.777v-112.8l54.312-33.711 0.83984-73.367-21.148-21.504z"/>
  <path d="m530.87 246.24 18.703-18.715-25.113-25.109-46.633-0.10937-21.516 21.516-1.1406-0.03125-21.375-21.375-46.633-0.10937-25.531 25.523 18.703 18.703 17.754-17.746 24.719 0.0625 21.137 21.129 23.047 0.56641 21.762-21.758 24.719 0.0625z"/>
  <path d="m432.49 262.75-25.531 25.523 18.707 18.703 17.75-17.75 24.727 0.066406 17.387 17.391 18.715-18.703-25.113-25.117z"/>
 </g>
</svg>
