<svg width="700pt" height="700pt" version="1.1" viewBox="0 0 700 700" xmlns="http://www.w3.org/2000/svg" xmlns:xlink="http://www.w3.org/1999/xlink" preserveAspectRatio="none">
 <g>
  <path d="m499.33 236.45v-112h-242.44l-56.223 43.555v68.445h-68.105l-54.668 36.301-1.6719 1.0312v136.89h504v-1.6484l1.9961 1.25 41.555-66.492v-107.33zm78.898 24.887-13.562 12.445h-98.41l10.945-12.445zm-246.9 12.445h-105.78v-80.887h121.5l33.008 24.906-17.652 21.18 20.32 16.941 35.43-42.523-27.176-20.504h39.906v80.891zm149.34-111.86v57.785l-24.891 28.293v-64.656zm-214.37-12.59h188.44l-21.691 18.668h-190.9zm-126.22 112h60.594v12.445h-79.336zm166.37 124.45h-137.43l33.91-40.035-20.184-17.098-41.895 49.461-7.0742 7.6719h-32.668v-87.109h205.33zm248.89 0h-224v-87.109h49.543l6.8086 59.852 67.871-16.973 45.129 22.016 11.594-23.781-53.797-26.234-47.93 11.977-3.0508-26.855h147.83zm24.891-19.277v-64.836l18.668-23.793v58.77z"/>
 </g>
</svg>
