<svg width="700pt" height="700pt" version="1.1" viewBox="0 0 700 700" xmlns="http://www.w3.org/2000/svg" xmlns:xlink="http://www.w3.org/1999/xlink" preserveAspectRatio="none">
 <g>
  <path d="m541.16 135.91c-4.8164 0-9.543 0.48047-14.211 1.2188 2.375-8.0938 3.6328-16.57 3.6328-25.242 0-49.223-40.047-89.27-89.266-89.27-23.867 0-46.211 9.3008-63.062 26.145l-102.93 83.355-68.875 58.383c-21.348 18.836-34.914 46.312-34.914 76.949 0 7.5117 0.85938 14.816 2.3945 21.871l-67.98 67.992c-0.29297 0.28516-0.57812 0.57422-0.85938 0.85938l-0.97656 0.97656 0.042968 0.042968c-17.781 18.473-28.785 43.52-28.785 71.125 0 56.641 46.074 102.71 102.71 102.71 38.219 0 71.555-21.02 89.246-52.062 17.691 31.043 51.035 52.062 89.246 52.062 37.047 0 69.477-19.781 87.547-49.273l171.5-211.82 4.1562-4.5c8.9414-14.199 10.633-25.418 10.633-42.273 0.011719-49.215-40.027-89.258-89.254-89.258zm-139.56-72.648c11.18-9.1797 25.039-14.188 39.723-14.188 18.312 0 34.762 7.9258 46.258 20.473l-93.234 100.25 19.371 18.02 87.664-94.254c1.7734 5.8047 2.7422 11.961 2.7422 18.336 0 11.043-2.8828 21.629-8.1992 30.973l-6.8203 7.8945c-2.0859 1.7422-9.1211 9.3477-11.07 11.293l-102.2 119.84c0.67188-4.7305 1.1367-9.5273 1.1367-14.441 0-55.738-44.652-101.15-100.05-102.58zm-217.52 253.32c2.3164 4.2305 5.0039 8.2188 7.8711 12.066-4.543-0.61719-9.1484-1.0469-13.855-1.0469-1.7852 0-3.5352 0.17969-5.3008 0.26562zm70.031 118.46c-2.4648 39.84-35.566 71.523-76.016 71.523-42.051 0-76.258-34.211-76.258-76.258 0-20.762 8.3633-39.598 21.879-53.363l1.0195-1.0195c13.762-13.508 32.598-21.879 53.363-21.879 40.449 0 73.555 31.684 76.016 71.523-0.074219 1.582-0.24219 3.1367-0.24219 4.7344-0.003906 1.6016 0.17188 3.1602 0.23828 4.7383zm13.23-55.383c-2.0898-3.6719-4.4297-7.1758-6.9453-10.547 4.3125 0.58594 8.6719 0.97656 13.137 1.0078-2.2305 3.0664-4.3086 6.2344-6.1914 9.5391zm-69.348-112.22c0-42.051 34.211-76.258 76.258-76.258 42.051 0 76.258 34.211 76.258 76.258 0 42.051-34.211 76.258-76.258 76.258-42.047 0.003907-76.258-34.207-76.258-76.258zm224.64 200.82-7.0625 8.7227 0.74219 0.59766c-13.98 17.621-35.535 28.984-59.723 28.984-40.449 0-73.555-31.684-76.016-71.523 0.074218-1.582 0.24219-3.1367 0.24219-4.7344 0-1.5977-0.16797-3.1562-0.24219-4.7344 2.4648-39.84 35.566-71.523 76.016-71.523 42.051 0 76.258 34.211 76.258 76.258-0.003906 13.82-3.7578 26.766-10.215 37.953zm175.51-216.77-139.19 171.91c-0.66406-9.9297-2.7422-19.465-6.043-28.43l90.789-104.47-19.969-17.355-84.172 96.855c-16.117-22.113-40.793-37.531-69.152-41.371l132.09-152.91c0.49609-0.39062 1.0195-0.75781 1.5312-1.1328 0 0 1.7305-1.0508 2.4023-1.7656 10.211-6.8008 22.188-10.461 34.734-10.461 34.633 0 62.812 28.176 62.812 62.812-0.011719 9.1523-2.0352 18.109-5.8281 26.316z"/>
  <path d="m175.78 459.33c-12.445 0-26.691-11.332-26.691-29.996l-26.457-0.003907c0 31.109 22.039 56.453 53.148 56.453v-13.348c0.77344 0.042969 1.5352 0.11719 2.3281 0.11719l-2.3281-2.3164z"/>
  <path d="m356.22 459.33c-7.5898 0-13.664-1.9609-18.293-5.4375l-4.3477-4.3477c-3.8906-5.0586-6-11.848-6-20.215h-26.457c0 31.109 23.98 56.453 55.09 56.453v-13.246c0.125 0 0.25 0.019532 0.37891 0.019532l-0.37109-0.37109z"/>
  <path d="m251.78 287.21c-4.1484-4.8086-6.5195-11.344-6.5195-19.648h-13.121l-0.35938-0.10938v0.10547h-12.984c0 31.109 25.43 55.367 56.543 55.367v-26.457c-8.7109 0-15.762-2.3164-20.887-6.5938z"/>
 </g>
</svg>
