<?xml version="1.0" encoding="UTF-8"?>
<svg width="700pt" height="700pt" version="1.1" viewBox="0 0 700 700" xmlns="http://www.w3.org/2000/svg" xmlns:xlink="http://www.w3.org/1999/xlink" preserveAspectRatio="none">
 <g>
  <path d="m544.02 290.5 18.703 18.703-47.371 47.371-18.703-18.703z"/>
  <path d="m544.02 204.36 18.703 18.703-47.371 47.371-18.703-18.703z"/>
  <path d="m544.01 118.21 18.703 18.703-47.367 47.367-18.703-18.703z"/>
  <path d="m168.68 118.23 47.375 47.367-18.703 18.707-47.375-47.367z"/>
  <path d="m168.68 204.36 47.371 47.371-18.703 18.703-47.371-47.371z"/>
  <path d="m168.68 290.5 47.371 47.371-18.703 18.703-47.371-47.371z"/>
  <path d="m464.17 209.61-21.523 0.29688c19.961-25.672 21.094-57.773 21.148-61.688l0.375-27.199-27.199 0.375c-2.9688 0.042969-22.188 0.66406-42.504 9.6953 3.5469-9.3008 6.0547-19.938 6.0547-31.453 0-37.402-26.355-65.574-29.363-68.668l-18.965-19.496-18.965 19.496c-3.0039 3.0938-29.363 31.266-29.363 68.668 0 11.516 2.5078 22.152 6.0547 31.453-20.316-9.0234-39.535-9.6523-42.504-9.6953l-27.199-0.375 0.375 27.199c0.054688 3.9141 1.1836 36.008 21.148 61.688l-21.523-0.29688 0.375 27.199c0.054688 3.9141 1.1836 36.008 21.148 61.688l-21.523-0.29688 0.375 27.199c0.0625 4.3125 1.3438 42.871 27.789 69.32 26.238 26.207 64.332 27.688 69.172 27.777v100.17h24.891v-99.832 0.03125-0.34766l3.0039-0.023437c4.3125-0.0625 43.488-1.3438 69.938-27.793 26.445-26.445 28.039-65.012 28.098-69.32l0.52734-27.199-21.449 0.29688c19.961-25.672 21.129-57.773 21.188-61.688zm-126.62 91.391v6.4453c-4.0195-0.14844-32.27-1.8398-50.449-20.031-19.613-19.613-20.043-50.98-20.043-50.98s31.367 0.4375 50.98 20.043c14.125 14.141 18.281 34.32 19.512 44.523zm28.762 6.457s0.4375-31.367 20.047-50.98c19.613-19.613 50.98-20.043 50.98-20.043s-0.4375 31.367-20.047 50.98c-19.617 19.617-50.98 20.043-50.98 20.043zm71.023-159.6s-0.4375 31.367-20.047 50.98c-19.613 19.613-50.98 20.047-50.98 20.047s0.4375-31.367 20.047-50.98c19.617-19.613 50.98-20.047 50.98-20.047zm-85.137-98.438s21.871 22.488 21.871 50.219c0 27.734-21.871 50.219-21.871 50.219s-21.871-22.488-21.871-50.219 21.871-50.219 21.871-50.219zm-34.168 118.48c17.504 17.504 19.723 44.297 20.004 49.879l-0.48437-0.003906v1.082c-4.0195-0.14844-32.27-1.8398-50.449-20.031-19.613-19.613-20.043-50.98-20.043-50.98 0 0.003906 31.363 0.44141 50.973 20.055zm-30.93 208.09c-19.613-19.613-20.043-50.98-20.043-50.98s31.367 0.4375 50.98 20.047c14.129 14.129 18.289 34.309 19.52 44.516v6.4453c-4.0273-0.14844-32.273-1.8398-50.457-20.027zm130.19 0c-19.613 19.613-50.98 20.047-50.98 20.047s0.4375-31.367 20.047-50.98c19.613-19.613 50.98-20.047 50.98-20.047 0 0.003906-0.43359 31.367-20.047 50.98z"/>
 </g>
</svg>
