<svg width="700pt" height="700pt" version="1.1" viewBox="0 0 700 700" xmlns="http://www.w3.org/2000/svg" xmlns:xlink="http://www.w3.org/1999/xlink" preserveAspectRatio="none">
 <g>
  <path d="m484.25 120.2 53.875 60.738-19.797 17.562-53.875-60.738z"/>
  <path d="m626.45 192.89-105.26-124.45h-201.12l-76.684 93.332h-80.609l-90.59 105.78 90.59 105.78h171.31l47.961-56h139.15zm-303.82 155.55h-148.41l-39.547-46.18 76.781-90.781-20.199-17.086-74.012 87.512-12.289-14.355 69.266-80.887h148.4l69.277 80.891zm80.719-56 21.32-24.891-90.59-105.78h-58.488l56.238-68.445h177.82l84.211 99.555-84.215 99.559z"/>
  <path d="m544.7 367.11h-121.43l-66.137 74.668 66.137 74.668h121.43l66.129-74.668zm-11.207 124.45h-99.012l-44.09-49.777 44.09-49.777h99.012l22.039 24.891h-62.422v24.891h84.465z"/>
 </g>
</svg>
