<svg xmlns="http://www.w3.org/2000/svg" width="200" height="200" fill="none" xmlns:v="https://vecta.io/nano"><style><![CDATA[.B{fill:#414342}.C{opacity:.25}.D{fill:#e0e0e0}.E{fill:#81635e}]]></style><g clip-path="url(#A)"><path d="M9.862 74.157c-.274-.015-.533-.131-.727-.325s-.31-.453-.325-.727l-.421-6.314a1.16 1.16 0 0 1 .274-.8l20.753-24.942c.104-.122.233-.219.379-.286s.303-.102.463-.103.321.036.468.103.278.165.384.287l20.848 24.953c.11.137.186.298.225.469a1.16 1.16 0 0 1-.004.52l-1.505 6.314c-.061.236-.196.447-.385.6s-.423.242-.667.252H9.862z" class="E"/><path d="M30.256 41.765l20.806 24.953-1.505 6.315H9.861l-.41-6.315h-.032l20.838-24.963v.011zm0-2.115c-.317-.001-.631.069-.918.204a2.16 2.16 0 0 0-.744.575L7.787 65.412c-.332.43-.5.963-.474 1.505l.421 6.315a2.17 2.17 0 0 0 2.105 2.031h39.665a2.2 2.2 0 0 0 2.105-1.673l1.505-6.315c.066-.324.061-.658-.015-.98s-.222-.623-.427-.883L31.867 40.418a2.27 2.27 0 0 0-.754-.567c-.288-.134-.601-.206-.919-.212l.063.011z" class="B"/><path d="M79.561 51.562c-.282-.007-.551-.119-.755-.313s-.329-.458-.35-.739l-.41-6.314a1.15 1.15 0 0 1 .242-.758l20.817-24.984c.097-.112.215-.204.347-.27s.276-.106.424-.117a1.12 1.12 0 0 1 .819.271l.115.116 20.796 24.963a1.16 1.16 0 0 1 .225.458 1.17 1.17 0 0 1 .007.51l-1.505 6.314c-.063.235-.198.445-.387.598a1.15 1.15 0 0 1-.666.254l-39.718.01z" class="E"/><path d="M99.926 19.105l20.796 24.963-1.505 6.314H79.562l-.421-6.314 20.785-24.963zm0-2.105a2.23 2.23 0 0 0-1.673.789L77.52 42.742a2.21 2.21 0 0 0-.505 1.537l.41 6.314a2.17 2.17 0 0 0 2.168 2.021h39.696a2.19 2.19 0 0 0 1.337-.471c.381-.301.652-.72.768-1.192l1.505-6.314a2.19 2.19 0 0 0 0-.999c-.077-.329-.228-.635-.442-.896l-20.837-24.953c-.206-.25-.465-.45-.758-.587s-.613-.206-.937-.203h0z" class="B"/><path d="M149.389 74.157c-.275-.015-.534-.131-.728-.325s-.31-.453-.325-.727l-.421-6.314a1.2 1.2 0 0 1 .242-.768l20.817-24.974c.107-.121.238-.218.385-.285s.306-.103.467-.105a1.14 1.14 0 0 1 .469.103 1.13 1.13 0 0 1 .384.287l20.806 24.953a1.16 1.16 0 0 1 .221.989l-1.494 6.314c-.061.236-.196.447-.386.6s-.423.242-.667.252h-39.77z" class="E"/><g class="B"><path d="M169.784 41.763l20.807 24.953-1.516 6.388h-39.686l-.421-6.315 20.806-24.963.01-.063zm-.01-2.042c-.317-.001-.631.069-.918.204s-.542.331-.745.575l-20.827 24.963c-.357.426-.538.971-.505 1.526l.41 6.314a2.18 2.18 0 0 0 2.2 2.031h39.697a2.19 2.19 0 0 0 1.337-.471c.381-.301.651-.72.767-1.192l1.516-6.314a2.28 2.28 0 0 0-.008-.997c-.077-.328-.225-.634-.434-.897L171.489 40.5c-.209-.24-.465-.433-.754-.567a2.27 2.27 0 0 0-.919-.212h-.042z"/><path d="M30.237 41.766L44.77 74.39l1.873-.032-.431-3.305.495-8.167 2.484-.074-18.954-21.048z" class="C"/></g><path d="M123.175 64.496H76.816c-.587 0-1.063.476-1.063 1.063v45.265c0 .587.476 1.063 1.063 1.063h46.359c.587 0 1.062-.476 1.062-1.063V65.559a1.06 1.06 0 0 0-1.062-1.063z" class="D"/><path d="M123.185 65.567v45.254H76.879V65.567h46.306 0zm0-2.105H76.879c-.558 0-1.094.222-1.488.616s-.617.93-.617 1.488v45.254c0 .558.222 1.094.617 1.488s.93.617 1.488.617h46.306c.558 0 1.094-.222 1.488-.617s.617-.93.617-1.488V65.567c0-.558-.222-1.094-.617-1.488s-.93-.616-1.488-.616z" class="B"/><path d="M58.577 181.25c-.279 0-.547-.111-.744-.308s-.308-.465-.308-.745l-2.368-78.078a1.05 1.05 0 0 1 .308-.744c.197-.197.465-.308.744-.308h12.524c.279 0 .547.111.744.308a1.05 1.05 0 0 1 .308.744v9.472h10.387v-9.472a1.05 1.05 0 0 1 .308-.744c.197-.197.465-.308.744-.308h12.524c.279 0 .547.111.744.308a1.05 1.05 0 0 1 .308.744v9.472h10.388v-9.472c0-.279.111-.547.308-.744s.465-.308.744-.308h12.524c.279 0 .547.111.744.308s.308.465.308.744v9.472h10.387v-9.472a1.05 1.05 0 0 1 .309-.744c.197-.197.465-.308.744-.308h12.566c.279 0 .546.111.744.308s.308.465.308.744l-2.399 78.1a1.05 1.05 0 0 1-.309.744c-.197.197-.465.308-.744.308l-82.845-.021z" class="D"/><path d="M143.823 102.107l-2.41 78.099H58.557l-2.368-78.078h12.513v10.524h12.524v-10.524H93.75v10.524h12.492v-10.524h12.523v10.524h12.514v-10.524h12.523l.021-.021zm-.021-2.084h-12.523c-.559 0-1.094.222-1.489.617s-.616.93-.616 1.488v8.419h-8.199v-8.419a2.1 2.1 0 0 0-.616-1.488c-.395-.395-.93-.617-1.488-.617h-12.524c-.558 0-1.094.222-1.488.617s-.617.93-.617 1.488v8.419h-8.303v-8.419c0-.558-.222-1.094-.617-1.488s-.93-.617-1.488-.617H81.31c-.558 0-1.094.222-1.488.617s-.617.93-.617 1.488v8.419h-8.261v-8.419c0-.558-.222-1.094-.617-1.488s-.93-.617-1.488-.617H56.21a2.11 2.11 0 0 0-1.519.646c-.197.205-.35.447-.45.712s-.147.548-.135.831l2.399 78.036c0 .559.222 1.094.617 1.489s.93.616 1.488.616h82.856c.558 0 1.093-.222 1.488-.616s.617-.93.617-1.489l2.368-78.004v-.179c0-.558-.222-1.094-.617-1.489s-.93-.616-1.488-.616l-.032.063z" class="B"/><path d="M2.104 181.271a1.05 1.05 0 0 1-1.052-1.053.56.56 0 0 1 0-.137L5.03 88.89l-3.81-5.315c-.127-.186-.197-.406-.2-.631V63.79c0-.279.111-.547.308-.744s.465-.308.744-.308h11.282c.279 0 .547.111.744.308a1.05 1.05 0 0 1 .308.744v10.103h9.167V63.79a1.05 1.05 0 0 1 1.052-1.052h11.292c.141-.001.281.027.411.081s.248.134.347.235.175.215.227.343a1.05 1.05 0 0 1 .078.404v10.103h9.177V63.801a1.05 1.05 0 0 1 1.052-1.052h11.366a1.05 1.05 0 0 1 1.052 1.052v19.122c0 .228-.074.449-.211.632l-3.799 5.336 4.01 91.234a1.05 1.05 0 0 1-.047.409c-.042.132-.111.255-.201.36a1.05 1.05 0 0 1-.324.256 1.04 1.04 0 0 1-.397.111H2.104v.011z" class="D"/><path d="M2.115 63.792h11.282v11.166H24.7V63.792h11.292v11.166h11.313V63.813h11.271v19.122l-4.031 5.63 4.031 91.644H2.105l4.031-91.644-4.031-5.609V63.792h.011zm-.011-2.105c-.558 0-1.094.222-1.488.617S0 63.234 0 63.792v19.154a2.18 2.18 0 0 0 .41 1.263l3.599 5.01-3.999 90.908c-.016.284.027.569.124.837s.249.513.444.72a2.19 2.19 0 0 0 .719.505 2.19 2.19 0 0 0 .86.179h56.42a2.19 2.19 0 0 0 1.579-.684c.195-.207.346-.453.444-.72a2.11 2.11 0 0 0 .124-.837l-3.947-90.907 3.599-5.02c.267-.363.411-.802.41-1.252V63.813c0-.558-.222-1.094-.617-1.488s-.93-.617-1.488-.617H47.306c-.558 0-1.094.222-1.488.617s-.617.93-.617 1.488v9.03H38.15v-9.019c0-.558-.222-1.094-.617-1.488s-.93-.617-1.488-.617H24.7c-.558 0-1.094.222-1.488.617s-.617.93-.617 1.488v8.956h-7.041v-8.977c0-.558-.222-1.094-.617-1.488s-.93-.616-1.488-.616H2.105v-.011z" class="B"/><path d="M141.454 181.248a1.18 1.18 0 0 1-.81-.358c-.102-.11-.178-.239-.226-.381a1.06 1.06 0 0 1-.048-.44l4.01-91.181-3.821-5.315v-.095c-.096-.162-.147-.348-.147-.537V63.799c0-.279.111-.547.308-.744s.465-.308.744-.308h11.282a1.05 1.05 0 0 1 1.053 1.052v10.093h9.177V63.799c0-.279.111-.547.308-.744a1.05 1.05 0 0 1 .744-.308h11.366a1.05 1.05 0 0 1 .411.081c.13.054.248.134.347.235s.175.215.227.343.079.266.078.404v10.093h9.166V63.81a1.05 1.05 0 0 1 1.053-1.053h11.282c.141-.001.28.027.411.081s.248.134.346.235.175.215.228.343.078.266.078.404v19.122c-.003.187-.05.371-.137.537l-.063.095-3.863 5.315 4.021 91.234a1.07 1.07 0 0 1-.047.409c-.043.132-.111.255-.201.36s-.2.193-.324.256-.258.101-.397.111h-.084l-56.472-.01z" class="D"/><path d="M141.465 63.771h11.271v11.166h11.293V63.792h11.366v11.166h11.292V63.792h11.282v19.122l-4.031 5.651 4.031 91.56h-56.515l4.042-91.56-4.021-5.609V63.771h-.01zm0-2.105c-.558 0-1.094.222-1.488.617s-.617.93-.617 1.488v19.154a2.18 2.18 0 0 0 .411 1.263l3.588 5.009-3.999 90.928a2.11 2.11 0 0 0 .107.816c.089.263.229.505.411.714s.405.378.654.5a2.12 2.12 0 0 0 .796.212h56.567c.558 0 1.094-.222 1.488-.617s.617-.93.617-1.488v-.137l-3.999-90.886 3.599-5.02a2.1 2.1 0 0 0 .4-1.252V63.802c0-.558-.222-1.094-.617-1.488s-.93-.616-1.488-.616h-11.25c-.558 0-1.094.222-1.489.616s-.616.93-.616 1.488v9.03h-7.041v-9.03c0-.558-.221-1.094-.616-1.488s-.93-.616-1.488-.616h-11.356c-.558 0-1.094.222-1.488.616s-.617.93-.617 1.488v9.03h-7.04v-9.03c0-.558-.222-1.094-.617-1.488s-.93-.616-1.488-.616h-11.282l-.042-.032z" class="B"/><g stroke="#111" stroke-width=".25"><g stroke-miterlimit="10"><path d="M56.115 89.5H5.536m139.264.161h49.316"/></g><g fill="#595959" stroke-linejoin="round"><path d="M30.235 108.632a5.54 5.54 0 0 0-3.783 1.76c-.983 1.058-1.514 2.458-1.479 3.902v12.081h10.756v-12.229a5.41 5.41 0 0 0-1.495-3.841c-.986-1.033-2.34-1.635-3.767-1.673h-.232zm139.33 0a5.54 5.54 0 0 0-3.78 1.763c-.983 1.057-1.515 2.456-1.483 3.899v12.081h10.714v-12.229a5.43 5.43 0 0 0-5.325-5.514h-.126zM99.62 75.358a4.9 4.9 0 0 0-3.343 1.561c-.869.936-1.338 2.173-1.309 3.449v10.629h9.471v-10.85a4.77 4.77 0 0 0-.343-1.833 4.78 4.78 0 0 0-4.382-2.998l-.095.042z"/></g></g><g class="B"><path d="M1.379 172.937L1 181.009h58.935l-4.21-91.328-8.63-.168L49 170.98c.007.25-.035.499-.125.733a1.92 1.92 0 0 1-.396.63c-.172.182-.378.327-.607.429s-.475.159-.725.165H1.379h0zm139.181 0l-.41 8.072h59.008l-4.273-91.328-8.661-.168 1.915 81.741a1.64 1.64 0 0 1-.108.631 1.66 1.66 0 0 1-.342.542c-.149.156-.327.282-.524.369s-.41.136-.625.141h-45.98zm-16.396-61.43l-4.368.021-.115-10.693h-3.084V66.948h7.599l-.032 44.559z" class="C"/><path d="M133.856 101.098l-2.505 70.049c-.024.481-.232.934-.58 1.267s-.811.52-1.293.522H59.23v8.24h81.74v-8.23h-.41l3.304-71.953-10.008.105z" class="C"/></g><path d="M86.73 181.273v-30.31c0-8.04 5.83-14.67 12.997-14.796h.2c7.282 0 13.218 6.419 13.218 14.312v30.804H86.73v-.01z" fill="#595959"/><g class="B"><path d="M99.926 137.177c6.714 0 12.145 5.936 12.145 13.25v29.699H87.866v-29.257c0-7.367 5.262-13.618 11.955-13.681h.189l-.084-.011zm.084-2.094h-.231c-7.746.137-14.05 7.24-14.05 15.86V180.2c0 .284.056.566.165.829a2.18 2.18 0 0 0 .47.704c.201.201.44.361.703.469a2.17 2.17 0 0 0 .83.165h24.205a2.17 2.17 0 0 0 1.533-.634c.407-.407.635-.958.635-1.533v-29.773c0-8.483-6.409-15.376-14.281-15.376l.021.032z"/><path d="M120.122 43.69l8.84-.8.526 17.765-5.294 6.293h-8.124l3.988-6.693.064-16.565zm-69.49 19.309l8.661-.179.579 20.575-5.294 6.293h-8.114l3.978-6.683.189-20.006z" class="C"/></g><path d="M75.721 66.914c-.169.001-.335-.039-.485-.116a1.05 1.05 0 0 1-.378-.326l-4.031-5.609a1.15 1.15 0 0 1-.2-.632V41.078a1.05 1.05 0 0 1 1.052-1.052h11.229a1.05 1.05 0 0 1 1.053 1.052V51.17h9.166V41.109a1.05 1.05 0 0 1 1.052-1.052h11.292c.28 0 .547.111.745.308s.308.465.308.744v10.093h9.187V41.109a1.05 1.05 0 0 1 1.053-1.052h11.292a1.05 1.05 0 0 1 .747.305c.101.099.181.217.235.347s.082.27.081.411v19.122c0 .189-.051.374-.147.537l-.063.095-4.031 5.588c-.099.139-.23.252-.382.329s-.321.116-.492.113l-48.284.01z" class="D"/><g class="B"><path d="M71.679 41.089h11.282v11.156h11.292V41.089h11.293v11.156h11.302V41.11h11.293v19.122l-4.01 5.609H75.72l-4.031-5.609V41.089h-.01zm-.011-2.157c-.558 0-1.094.222-1.488.617s-.617.93-.617 1.488v19.112c-.001.451.143.89.41 1.252l4.02 5.609c.191.283.448.515.749.676s.636.247.977.25h48.411a2.11 2.11 0 0 0 1.737-.884l4.02-5.609c.267-.363.411-.802.41-1.252V41.11a2.11 2.11 0 0 0-.616-1.488c-.395-.395-.93-.616-1.489-.616h-11.334c-.558 0-1.094.222-1.488.616s-.617.93-.617 1.488v9.03h-7.04v-9.03c0-.558-.222-1.094-.617-1.488s-.93-.616-1.488-.616H94.264c-.558 0-1.094.222-1.488.616s-.617.93-.617 1.488v9.03h-7.041v-9.03c0-.558-.222-1.094-.617-1.488s-.93-.616-1.488-.616H71.742l-.074-.074z"/><path d="M189.97 62.982l8.662-.179.589 20.575-5.294 6.293h-8.124l3.978-6.683.189-20.006zM120.259 40.07l8.672-.179.579 20.585-5.294 6.283h-8.125l3.989-6.683.179-20.006zM99.948 19.114l14.534 32.635 1.873-.042-.421-3.305.495-8.167 2.483-.063-18.964-21.059zm69.826 22.63l14.534 32.635 1.873-.042-.431-3.305.494-8.167 2.484-.063-18.954-21.059z" class="C"/></g></g><defs><clipPath id="A"><path fill="#fff" d="M0 0h200v200H0z"/></clipPath></defs></svg>